<svg width="60" height="60" viewBox="0 0 60 60" fill="none" xmlns="http://www.w3.org/2000/svg">
<path d="M60 30C60 44.9742 49.0289 57.3855 34.6875 59.6355V38.6719H41.6777L43.0078 30H34.6875V24.3727C34.6875 21.9996 35.85 19.6875 39.5766 19.6875H43.3594V12.3047C43.3594 12.3047 39.9258 11.7188 36.6434 11.7188C29.7914 11.7188 25.3125 15.8719 25.3125 23.3906V30H17.6953V38.6719H25.3125V59.6355C10.9711 57.3855 0 44.9742 0 30C0 13.432 13.432 0 30 0C46.568 0 60 13.432 60 30Z" fill="#1877F2"/>
<path d="M41.6777 38.6719L43.0078 30H34.6875V24.3725C34.6875 22.0001 35.8498 19.6875 39.5764 19.6875H43.3594V12.3047C43.3594 12.3047 39.9263 11.7188 36.6439 11.7188C29.7913 11.7188 25.3125 15.8719 25.3125 23.3906V30H17.6953V38.6719H25.3125V59.6354C26.8399 59.8751 28.4053 60 30 60C31.5947 60 33.1601 59.8751 34.6875 59.6354V38.6719H41.6777Z" fill="white"/>
</svg>
