<svg width="60" height="60" viewBox="0 0 60 60" fill="none" xmlns="http://www.w3.org/2000/svg">
<path d="M30 60C46.5685 60 60 46.5685 60 30C60 13.4315 46.5685 0 30 0C13.4315 0 0 13.4315 0 30C0 46.5685 13.4315 60 30 60Z" fill="url(#paint0_linear_109_48)"/>
<path d="M36.3733 13.3334H23.64C17.96 13.3334 13.3467 17.9467 13.3467 23.6267V36.36C13.3467 42.04 17.96 46.6534 23.64 46.6534H36.3733C42.0533 46.6534 46.6667 42.04 46.6667 36.36V23.6267C46.6667 17.9467 42.0533 13.3334 36.3733 13.3334ZM42.9467 36.3734C42.9467 40 40 42.96 36.36 42.96H23.6267C20 42.96 17.04 40.0134 17.04 36.3734V23.64C17.04 20.0134 19.9867 17.0534 23.6267 17.0534H36.36C39.9867 17.0534 42.9467 20 42.9467 23.64V36.3734Z" fill="white"/>
<path d="M30 21.48C25.3066 21.48 21.48 25.3066 21.48 30C21.48 34.6933 25.3066 38.52 30 38.52C34.6933 38.52 38.52 34.6933 38.52 30C38.52 25.3066 34.6933 21.48 30 21.48ZM30 35.1733C27.1466 35.1733 24.8266 32.8533 24.8266 30C24.8266 27.1466 27.1466 24.8266 30 24.8266C32.8533 24.8266 35.1733 27.1466 35.1733 30C35.1733 32.8533 32.8533 35.1733 30 35.1733Z" fill="white"/>
<path d="M39.1689 22.414C39.9539 22.2868 40.4871 21.5473 40.3598 20.7624C40.2326 19.9774 39.4931 19.4442 38.7081 19.5715C37.9232 19.6987 37.39 20.4382 37.5173 21.2232C37.6445 22.0081 38.384 22.5413 39.1689 22.414Z" fill="white"/>
<defs>
<linearGradient id="paint0_linear_109_48" x1="7.1572" y1="52.8428" x2="49.7905" y2="10.2095" gradientUnits="userSpaceOnUse">
<stop stop-color="#FEE411"/>
<stop offset="0.0518459" stop-color="#FEDB16"/>
<stop offset="0.1381" stop-color="#FEC125"/>
<stop offset="0.2481" stop-color="#FE983D"/>
<stop offset="0.3762" stop-color="#FE5F5E"/>
<stop offset="0.5" stop-color="#FE2181"/>
<stop offset="1" stop-color="#9000DC"/>
</linearGradient>
</defs>
</svg>
